# xmcd
#
# Track frame offsets:
#	150
#	12802
#	25325
#	45615
#	57337
#	78580
#	93290
#	109160
#	120517
#	141200
#	149845
#	163317
#	175542
#	191747
#	209637
#	230065
#	242917
#	259385
#	279915
#	294962
#	308227
#	321062
#	332952
# Disc length: 4650 seconds
# Revision: 3
# Processed by: cddbd v1.5.2PL0 Copyright (c) Steve Scherf et al.
#
# Submitted via: libkcddb 0.31
#
DISCID=5d122817
DTITLE=Elvis Presley - The Ultimate Collection - CD 4
DYEAR=2002
DGENRE=Rock and Roll
TTITLE0=Don't Cry Daddy
TTITLE1=In The Ghetto
TTITLE2=Suspicious Minds
TTITLE3=The Wonder Of You
TTITLE4=Polk Salad Annie
TTITLE5=Kentucky Rain
TTITLE6=I've Lost You
TTITLE7=You Don't Have To Say You Love Me
TTITLE8=I Just Can't Help Believin'
TTITLE9=Rags To Riches
TTITLE10=There Goes My Everthing
TTITLE11=It's Only Love
TTITLE12=Amazing Grace
TTITLE13=Until It's Time For You To Go
TTITLE14=An American Trilogy
TTITLE15=Burning Love
TTITLE16=Always On My Mind
TTITLE17=My Way
TTITLE18=My Boy
TTITLE19=Promised Land
TTITLE20=Moody Blue
TTITLE21=Way Down
TTITLE22=Bonus Track: A Little Less Conversation (vs. JXL)
EXTD=
EXTT0=
EXTT1=
EXTT2=
EXTT3=
EXTT4=
EXTT5=
EXTT6=
EXTT7=
EXTT8=
EXTT9=
EXTT10=
EXTT11=
EXTT12=
EXTT13=
EXTT14=
EXTT15=
EXTT16=
EXTT17=
EXTT18=
EXTT19=
EXTT20=
EXTT21=
EXTT22=
PLAYORDER=
